<svg xmlns="http://www.w3.org/2000/svg" width="20" height="20" fill="none" xmlns:v="https://vecta.io/nano"><path d="M10 13c.8 0 1.5-.3 2.1-.9.6-.6.9-1.3.9-2.1s-.3-1.5-.9-2.1c-.6-.6-1.3-.9-2.1-.9s-1.5.3-2.1.9C7.3 8.5 7 9.2 7 10s.3 1.5.9 2.1c.6.6 1.3.9 2.1.9zm0-13c2.75 0 5.1 1 7.05 2.95S20 7.25 20 10v1.45A3.63 3.63 0 0 1 19 14a3.43 3.43 0 0 1-2.5 1c-1.2 0-2.2-.5-2.94-1.5A4.85 4.85 0 0 1 10 15c-1.37 0-2.55-.5-3.54-1.46C5.5 12.55 5 11.38 5 10c0-1.37.5-2.55 1.46-3.54C7.45 5.5 8.63 5 10 5c1.38 0 2.55.5 3.54 1.46C14.5 7.45 15 8.63 15 10v1.45c0 .4.16.77.46 1.08s.65.47 1.04.47c.42 0 .77-.16 1.07-.47s.43-.67.43-1.08V10c0-2.2-.77-4.07-2.35-5.65S12.2 2 10 2s-4.07.77-5.65 2.35S2 7.8 2 10s.77 4.07 2.35 5.65S7.8 18 10 18h5v2h-5c-2.75 0-5.1-1-7.05-2.95S0 12.75 0 10s1-5.1 2.95-7.05S7.25 0 10 0z" fill="#bdbdbd"/></svg>