<svg xmlns="http://www.w3.org/2000/svg" width="18" height="18" fill="none" xmlns:v="https://vecta.io/nano"><path d="M15 3c2.07 2.04 2.85 4.9 2.36 7.55.4.72.64 1.56.64 2.45a5 5 0 0 1-5 5c-.9 0-1.73-.23-2.45-.64-2.66.5-5.5-.3-7.55-2.36C.93 12.96.15 10.1.64 7.45.23 6.73 0 5.9 0 5a5 5 0 0 1 1.464-3.536A5 5 0 0 1 5 0c.9 0 1.73.23 2.45.64C10.1.15 12.96.93 15 3zM9.04 14.16c2.87 0 4.3-1.38 4.3-3.24 0-1.2-.56-2.46-2.73-2.95l-2-.44C7.86 7.36 7 7.13 7 6.42c0-.72.6-1.22 1.7-1.22 2.23 0 2.02 1.53 3.13 1.53.58 0 1.08-.34 1.08-.93 0-1.37-2.2-2.4-4.05-2.4-2 0-4.16.86-4.16 3.14 0 1.1.4 2.27 2.55 2.8l2.7.68c.8.2 1 .65 1 1.07 0 .68-.68 1.35-1.9 1.35-2.4 0-2.08-1.85-3.37-1.85-.58 0-1 .4-1 .97 0 1.1 1.33 2.6 4.37 2.6z" fill="#bdbdbd"/></svg>