<svg width="8" height="7" viewBox="0 0 8 7" fill="none" xmlns="http://www.w3.org/2000/svg">
<path d="M1.70711 3.29289C1.31658 2.90237 0.683417 2.90237 0.292893 3.29289C-0.0976311 3.68342 -0.0976311 4.31658 0.292893 4.70711L1.70711 3.29289ZM3 6L2.29289 6.70711C2.49402 6.90824 2.77129 7.0142 3.0553 6.99847C3.33931 6.98274 3.60318 6.84681 3.78087 6.62469L3 6ZM7.78087 1.6247C8.12588 1.19343 8.05596 0.564141 7.62469 0.219131C7.19343 -0.125878 6.56414 -0.055957 6.21913 0.375305L7.78087 1.6247ZM0.292893 4.70711L2.29289 6.70711L3.70711 5.29289L1.70711 3.29289L0.292893 4.70711ZM3.78087 6.62469L7.78087 1.6247L6.21913 0.375305L2.21913 5.37531L3.78087 6.62469Z" fill="#27AE60"/>
</svg>
