<svg xmlns="http://www.w3.org/2000/svg" width="20" height="20" fill="none" xmlns:v="https://vecta.io/nano"><path d="M14.36 12c.08-.66.14-1.32.14-2s-.06-1.34-.14-2h3.38c.16.64.26 1.3.26 2s-.1 1.36-.26 2h-3.38zm-1.77 5.56A15.65 15.65 0 0 0 13.97 14h2.95a8.03 8.03 0 0 1-4.33 3.56zM12.34 12H7.66c-.1-.66-.16-1.32-.16-2s.06-1.35.16-2h4.68c.1.65.16 1.32.16 2s-.07 1.34-.16 2zM10 17.96c-.83-1.2-1.5-2.53-1.9-3.96h3.82c-.4 1.43-1.08 2.76-1.9 3.96zM6 6H3.08c.96-1.673 2.495-2.94 4.32-3.56C6.8 3.55 6.35 4.75 6 6zm-2.92 8H6c.35 1.25.8 2.45 1.4 3.56A8.01 8.01 0 0 1 3.08 14zm-.82-2C2.1 11.36 2 10.7 2 10s.1-1.36.26-2h3.38c-.08.66-.14 1.32-.14 2s.06 1.34.14 2H2.26zM10 2.03c.83 1.2 1.5 2.54 1.9 3.97H8.1c.4-1.43 1.08-2.77 1.9-3.97zM16.92 6h-2.95a15.65 15.65 0 0 0-1.38-3.56c1.84.63 3.37 1.9 4.33 3.56zM10 0C4.47 0 0 4.5 0 10a10 10 0 0 0 6.173 9.239 10 10 0 0 0 10.898-2.168 10 10 0 0 0 2.168-10.898A10 10 0 0 0 13.827.761 10 10 0 0 0 10 0z" fill="#bdbdbd"/></svg>